<svg width="40" height="40" viewBox="0 0 40 40" fill="none" xmlns="http://www.w3.org/2000/svg">
<path d="M25.9609 10.6418H14.0391C12.1362 10.6418 10.588 12.19 10.588 14.0929V26.0147C10.588 27.9176 12.1362 29.4662 14.0391 29.4662H25.9609C27.8638 29.4662 29.4124 27.9181 29.4124 26.0147V14.0929C29.4124 12.19 27.8642 10.6418 25.9609 10.6418ZM20 26.2509C16.5832 26.2509 13.8033 23.471 13.8033 20.0538C13.8033 16.6371 16.5832 13.8572 20 13.8572C23.4172 13.8572 26.1971 16.6371 26.1971 20.0538C26.1971 23.4706 23.4167 26.2509 20 26.2509ZM26.3963 15.1384C25.5875 15.1384 24.9297 14.4806 24.9297 13.6722C24.9297 12.8638 25.5875 12.2061 26.3963 12.2061C27.2047 12.2061 27.8625 12.8638 27.8625 13.6722C27.8625 14.4806 27.2047 15.1384 26.3963 15.1384Z" fill="#888888"/>
<path d="M20 16.4758C18.0276 16.4758 16.4215 18.081 16.4215 20.0534C16.4215 22.0268 18.0276 23.6324 20 23.6324C21.9733 23.6324 23.5781 22.0268 23.5781 20.0534C23.5781 18.0815 21.9729 16.4758 20 16.4758Z" fill="#888888"/>
<path d="M20 0C8.95475 0 0 8.95475 0 20C0 31.0453 8.95475 40 20 40C31.0453 40 40 31.0453 40 20C40 8.95475 31.0453 0 20 0ZM32.0306 26.0148C32.0306 29.3621 29.3081 32.0845 25.9609 32.0845H14.0391C10.6923 32.0845 7.96943 29.3621 7.96943 26.0148V14.093C7.96943 10.7462 10.6923 8.02335 14.0391 8.02335H25.9609C29.3081 8.02335 32.0306 10.7462 32.0306 14.093V26.0148Z" fill="#888888"/>
</svg>
