<svg width="25" height="24" viewBox="0 0 25 24" fill="none" xmlns="http://www.w3.org/2000/svg">
<g clip-path="url(#clip0)">
<path d="M24.1626 21.8602L18.222 15.9194C19.7495 14.1735 20.5863 11.9768 20.5863 9.68999C20.5863 4.34701 16.0654 0 10.5087 0C4.95205 0 0.431152 4.34701 0.431152 9.68999C0.431152 15.033 4.95205 19.38 10.5087 19.38C12.5948 19.38 14.5827 18.775 16.2823 17.6265L22.268 23.6124C22.5182 23.8622 22.8547 24 23.2153 24C23.5566 24 23.8804 23.8749 24.1262 23.6474C24.6485 23.1641 24.6651 22.3628 24.1626 21.8602ZM10.5087 2.52782C14.616 2.52782 17.9574 5.74069 17.9574 9.68999C17.9574 13.6393 14.616 16.8522 10.5087 16.8522C6.40147 16.8522 3.06009 13.6393 3.06009 9.68999C3.06009 5.74069 6.40147 2.52782 10.5087 2.52782Z" fill="white"/>
</g>
<defs>
<clipPath id="clip0">
<rect width="24.96" height="24" fill="white"/>
</clipPath>
</defs>
</svg>
