<svg width="40" height="40" viewBox="0 0 40 40" fill="none" xmlns="http://www.w3.org/2000/svg">
<path d="M10.5068 21.4759H12.0925V30.0582H13.5926V21.4759H15.2077V20.0703H10.5068V21.4759Z" fill="#888888"/>
<path d="M23.1914 22.5253C22.6954 22.5253 22.2326 22.7962 21.7976 23.3323V20.0701H20.4493V30.0584H21.7976V29.3374C22.249 29.8943 22.7114 30.1611 23.1914 30.1611C23.7278 30.1611 24.0888 29.8788 24.2688 29.3247C24.3593 29.0092 24.4055 28.5136 24.4055 27.825V24.8615C24.4055 24.1568 24.3593 23.665 24.2688 23.3658C24.0892 22.8077 23.7274 22.5253 23.1914 22.5253ZM23.0563 27.9305C23.0563 28.6033 22.8591 28.9347 22.4695 28.9347C22.2482 28.9347 22.0227 28.8287 21.7972 28.6029V24.0672C22.0227 23.8442 22.2482 23.7386 22.4695 23.7386C22.8587 23.7386 23.0563 24.0832 23.0563 24.7543V27.9305Z" fill="#888888"/>
<path d="M17.9331 28.3035C17.634 28.7262 17.3512 28.9345 17.0803 28.9345C16.9003 28.9345 16.7976 28.8286 16.7648 28.619C16.7526 28.5757 16.7526 28.4112 16.7526 28.0953V22.616H15.4038V28.5C15.4038 29.0258 15.4492 29.381 15.5229 29.6069C15.6583 29.9842 15.9579 30.1609 16.3916 30.1609C16.888 30.1609 17.3971 29.8614 17.9331 29.2468V30.0586H19.2827V22.616H17.9331V28.3035Z" fill="#888888"/>
<path d="M19.0908 15.7406C19.5298 15.7406 19.7406 15.3924 19.7406 14.6967V11.5331C19.7406 10.8371 19.5298 10.4905 19.0908 10.4905C18.6513 10.4905 18.4401 10.8375 18.4401 11.5331V14.6967C18.4401 15.3928 18.6513 15.7406 19.0908 15.7406Z" fill="#888888"/>
<path d="M20 0C8.95427 0 0 8.95427 0 20C0 31.0457 8.95427 40 20 40C31.0457 40 40 31.0457 40 20C40 8.95427 31.0457 0 20 0ZM22.2245 9.35448H23.5834V14.8919C23.5834 15.2115 23.5834 15.3772 23.5998 15.4218C23.6297 15.6329 23.7369 15.741 23.9194 15.741C24.1919 15.741 24.478 15.5298 24.7804 15.103V9.35448H26.143V16.8753H24.7804V16.0552C24.2377 16.6772 23.7205 16.9788 23.2233 16.9788C22.7847 16.9788 22.4818 16.8008 22.3452 16.4203C22.2699 16.1923 22.2245 15.8326 22.2245 15.3019V9.35448ZM17.0774 11.8069C17.0774 11.0028 17.2141 10.4151 17.5038 10.035C17.8807 9.52061 18.4115 9.26363 19.0907 9.26363C19.7733 9.26363 20.3036 9.52061 20.6805 10.035C20.9661 10.4147 21.1028 11.0028 21.1028 11.8069V14.4405C21.1028 15.2401 20.9661 15.833 20.6805 16.2091C20.3036 16.7222 19.7733 16.9788 19.0907 16.9788C18.4115 16.9788 17.8807 16.7222 17.5038 16.2091C17.2141 15.833 17.0774 15.2397 17.0774 14.4405V11.8069ZM13.433 6.78302L14.506 10.7462L15.5368 6.78302H17.0652L15.2471 12.7881V16.8757H13.7363V12.7881C13.5992 12.0638 13.2968 11.0028 12.8119 9.59509C12.4935 8.65841 12.1616 7.71887 11.8433 6.78302H13.433ZM30.7666 30.7155C30.4933 31.9018 29.5231 32.7775 28.3548 32.908C25.5873 33.217 22.7879 33.2186 19.9988 33.217C17.2108 33.2186 14.4098 33.217 11.6432 32.908C10.4749 32.7775 9.50425 31.9022 9.23171 30.7155C8.84256 29.0259 8.84256 27.1808 8.84256 25.4408C8.84256 23.7009 8.84747 21.8562 9.23621 20.1661C9.50916 18.9794 10.479 18.1037 11.6473 17.9736C14.4143 17.6647 17.2149 17.663 20.0037 17.6647C22.7916 17.663 25.5922 17.6647 28.3593 17.9736C29.5276 18.1041 30.4982 18.9794 30.772 20.1661C31.1599 21.8562 31.1574 23.7009 31.1574 25.4408C31.1574 27.1808 31.1558 29.0259 30.7666 30.7155Z" fill="#888888"/>
<path d="M27.4864 22.5251C26.7965 22.5251 26.2608 22.7784 25.8713 23.2879C25.5852 23.6644 25.4547 24.2463 25.4547 25.0414V27.6484C25.4547 28.4394 25.6008 29.0254 25.8881 29.3982C26.2772 29.9064 26.8145 30.1605 27.52 30.1605C28.2242 30.1605 28.7771 29.8942 29.1503 29.3536C29.3139 29.1146 29.4203 28.8441 29.4653 28.5454C29.478 28.4104 29.494 28.1112 29.494 27.6763V27.4802H28.1186C28.1186 28.0204 28.1011 28.3203 28.0892 28.3936C28.0123 28.7541 27.8183 28.9342 27.4864 28.9342C27.0232 28.9342 26.7965 28.5904 26.7965 27.9021V26.582H29.494V25.0405C29.494 24.2455 29.3594 23.6636 29.0766 23.2871C28.6997 22.7789 28.1633 22.5251 27.4864 22.5251ZM28.1461 25.46H26.7973V24.7713C26.7973 24.083 27.0236 23.7389 27.4741 23.7389C27.9202 23.7389 28.1461 24.0834 28.1461 24.7713V25.46Z" fill="#888888"/>
</svg>
