<svg width="274" height="56" viewBox="0 0 274 56" fill="none" xmlns="http://www.w3.org/2000/svg">
<g clip-path="url(#clip0)">
<path d="M78.6408 38.9568H69.7706V43.7463L78.6408 42.2063V38.9568Z" fill="#D50038"/>
<path d="M23.5223 8.20844H14.6521V48.1895H8.84039V38.6105H0V50.8421C0 53.0969 0.840879 54.659 2.41846 55.4326L23.4628 51.7484C23.5002 51.4477 23.5201 51.1451 23.5223 50.8421V8.20844Z" fill="#D50038"/>
<path d="M50.3708 8.20844V47.1137L59.2336 45.5737V8.20844H50.3708Z" fill="#D50038"/>
<path d="M42.9815 48.1895V8.20844H34.1188V49.9358L42.9815 48.3958V48.1895Z" fill="#D50038"/>
<path d="M78.6408 22.8421V15.901H85.1669V24.5516H94.037V13.3295C94.037 10.0284 92.199 8.17157 88.8281 8.17157H74.9201C71.6012 8.17157 69.7781 10.0137 69.7781 13.3295V23.5789C69.756 24.3913 69.9062 25.1992 70.2189 25.9506C70.5317 26.7019 71 27.38 71.5938 27.941L85.1743 40.6737V41.0642L94.0222 39.5242C94.0078 38.7654 93.8411 38.017 93.532 37.3225C93.2228 36.628 92.7773 36.0014 92.2213 35.4789L78.6408 22.8421Z" fill="#D50038"/>
<path d="M126.697 16.1958V8.20844H102.587V16.1958H110.222V36.7242L119.062 35.1916V16.1958H126.697Z" fill="#D50038"/>
<path d="M154.119 7.95053H135.002V31.6842L143.872 30.2105V15.7611H150.398V29.0242L159.328 27.4768V13.1305C159.32 9.79264 157.475 7.95053 154.119 7.95053Z" fill="#D50038"/>
<path d="M169.329 7.95053V25.7526L178.192 24.22V7.95053H169.329Z" fill="#D50038"/>
<path d="M206.127 7.89157L203.805 19.7695L216.88 17.5L215.012 7.89157H206.127Z" fill="#D50038"/>
<path d="M258.299 9.32106V7.95053H249.481L248.357 12.04L257.964 10.3674L258.299 9.32106Z" fill="#D50038"/>
<path d="M239.918 7.95053H231.19L231.085 8.79053C231.042 9.03716 231.062 9.29076 231.145 9.52737L232.797 14.7368L241.392 13.2632L239.918 7.95053Z" fill="#D50038"/>
<path d="M268.345 0C267.226 0 266.133 0.328434 265.203 0.94377C264.273 1.55911 263.548 2.43371 263.12 3.45697C262.692 4.48024 262.58 5.60621 262.798 6.69251C263.016 7.7788 263.555 8.77662 264.346 9.5598C265.136 10.343 266.144 10.8763 267.241 11.0924C268.338 11.3085 269.475 11.1976 270.509 10.7737C271.542 10.3499 272.425 9.63211 273.047 8.71119C273.668 7.79028 274 6.70758 274 5.6C273.998 4.11539 273.402 2.69214 272.341 1.64236C271.281 0.592574 269.844 0.00194959 268.345 0ZM268.345 10.7063C267.325 10.7063 266.328 10.4068 265.48 9.84575C264.632 9.28466 263.971 8.48716 263.58 7.5541C263.19 6.62105 263.088 5.59434 263.287 4.60381C263.486 3.61328 263.977 2.70342 264.698 1.98929C265.419 1.27516 266.338 0.788829 267.339 0.591801C268.339 0.394772 269.376 0.495895 270.318 0.88238C271.26 1.26886 272.066 1.92335 272.632 2.76308C273.199 3.60281 273.501 4.59007 273.501 5.6C273.501 6.95428 272.958 8.25309 271.991 9.21071C271.024 10.1683 269.712 10.7063 268.345 10.7063Z" fill="#D50038"/>
<path d="M264.311 4.22946H265.495V7.59682H266.149V4.22946H267.34V3.7063H264.311V4.22946Z" fill="#D50038"/>
<path d="M271.299 3.7063L270.168 6.69788H270.153L269.022 3.7063H268.173V7.59682H268.828V6.27051L268.761 4.59051H268.776L269.937 7.59682H270.376L271.544 4.58314H271.559L271.492 6.27051V7.59682H272.147V3.7063H271.299Z" fill="#D50038"/>
<path d="M5.12714 56H18.2761C21.3196 56 23.1205 54.5264 23.4851 51.7853L2.4408 55.4695C3.28383 55.8464 4.2026 56.0279 5.12714 56Z" fill="#3EB4F0"/>
<path d="M50.356 48.1895H44.1722L34.1039 49.9358V50.8421C34.1039 54.1652 35.942 56 39.3129 56H53.9874C57.3583 56 59.1964 54.1726 59.1964 50.8421V45.5737L50.356 47.1137V48.1895Z" fill="#3EB4F0"/>
<path d="M85.152 48.3074H78.6259V42.2063L69.7557 43.7463V50.8421C69.7557 54.1653 71.5789 56 74.8978 56H88.8429C92.1767 56 94.0519 54.1727 94.0519 50.8421V39.9148C94.0519 39.7821 94.0519 39.6642 94.0519 39.539L85.2041 41.079L85.152 48.3074Z" fill="#3EB4F0"/>
<path d="M110.207 55.9999H119.048V35.1915L110.207 36.7242V55.9999Z" fill="#3EB4F0"/>
<path d="M150.316 31.3231H143.79V30.2105L134.92 31.7505V55.7568H143.79V39.1337H154.037C157.393 39.1337 159.246 37.2694 159.246 33.8947V27.5063L150.316 29.0537V31.3231Z" fill="#3EB4F0"/>
<path d="M169.285 55.7569H189.428V47.7106H178.155V24.2274L169.285 25.7674V55.7569Z" fill="#3EB4F0"/>
<path d="M196.967 54.5263V54.6148V55.7863H205.606L206.998 47.0842H214.015L215.406 55.7863H224.277L216.835 17.5442L203.761 19.8137L196.967 54.5263ZM210.465 25.539L212.698 39.2737H208.233L210.465 25.539Z" fill="#3EB4F0"/>
<path d="M248.312 12.0473L244.673 25.222L241.347 13.2631L232.752 14.7368L237.172 28.6263C237.172 28.7294 237.299 29.0315 238.869 33.4084C239.403 34.9198 239.84 36.4628 240.179 38.0284V55.7126H249.108V38.0284C250.359 33.6515 251.341 30.4978 252.085 28.6631L257.941 10.3378L248.312 12.0473Z" fill="#3EB4F0"/>
</g>
<defs>
<clipPath id="clip0">
<rect width="274" height="56" fill="white"/>
</clipPath>
</defs>
</svg>
